<?xml version="1.0" encoding="UTF-8" standalone="no"?>
<!-- Created with Inkscape (http://www.inkscape.org/) -->

<svg
   width="1000"
   height="1000"
   viewBox="0 0 264.58333 264.58333"
   version="1.1"
   id="svg1"
   xml:space="preserve"
   inkscape:version="1.4 (e7c3feb1, 2024-10-09)"
   sodipodi:docname="measured-mile-logo.svg"
   xmlns:inkscape="http://www.inkscape.org/namespaces/inkscape"
   xmlns:sodipodi="http://sodipodi.sourceforge.net/DTD/sodipodi-0.dtd"
   xmlns="http://www.w3.org/2000/svg"
   xmlns:svg="http://www.w3.org/2000/svg"><sodipodi:namedview
     id="namedview1"
     pagecolor="#ffffff"
     bordercolor="#111111"
     borderopacity="1"
     inkscape:showpageshadow="0"
     inkscape:pageopacity="0"
     inkscape:pagecheckerboard="1"
     inkscape:deskcolor="#d1d1d1"
     inkscape:document-units="mm"
     inkscape:zoom="0.57982756"
     inkscape:cx="445.8222"
     inkscape:cy="373.38687"
     inkscape:window-width="1680"
     inkscape:window-height="1224"
     inkscape:window-x="448"
     inkscape:window-y="38"
     inkscape:window-maximized="0"
     inkscape:current-layer="layer1" /><defs
     id="defs1" /><g
     inkscape:label="Layer 1"
     inkscape:groupmode="layer"
     id="layer1"
     style="display:inline"><path
       style="display:inline;fill:#f6d776;fill-opacity:1;stroke:none"
       d="m 95.094196,224.31373 c -0.23736,-0.23736 -0.3175,-3.26585 -0.3175,-11.99754 0,-13.63986 -0.2526,-12.55822 2.931249,-12.5519 1.07995,0.002 2.23071,0.15098 2.557265,0.33073 0.32987,0.18159 2.04999,2.77703 3.87069,5.84037 l 3.27697,5.51353 1.31909,-2.20624 c 0.72551,-1.21344 2.16958,-3.65868 3.20906,-5.43389 1.03948,-1.7752 2.15361,-3.41231 2.47586,-3.63802 0.73358,-0.51382 4.38098,-0.57134 5.05108,-0.0796 0.41494,0.30447 0.44522,1.28665 0.3813,12.36927 l -0.0694,12.03854 -1.84655,0.0796 c -1.0156,0.0438 -2.11518,0.0122 -2.44352,-0.0702 l -0.59697,-0.14984 -0.07,-7.99187 -0.07,-7.99188 -2.2173,3.96105 c -3.84208,6.86361 -4.41138,7.55191 -5.74404,6.94474 -0.31529,-0.14365 -1.87761,-2.48827 -3.63442,-5.45428 l -3.08142,-5.20233 -0.004,7.68615 c -0.003,5.62117 -0.0889,7.77145 -0.321105,8.00365 -0.19124,0.19124 -1.11712,0.3175 -2.32833,0.3175 -1.211199,0 -2.137089,-0.12626 -2.328329,-0.3175 z m 31.220834,0 c -0.45689,-0.45689 -0.45689,-23.77895 0,-24.23584 0.1877,-0.18769 1.09038,-0.3175 2.20795,-0.3175 2.98448,0 2.76622,-0.99432 2.76622,12.60177 0,8.69594 -0.0802,11.71425 -0.3175,11.95157 -0.19125,0.19124 -1.11713,0.3175 -2.32834,0.3175 -1.2112,0 -2.13709,-0.12626 -2.32833,-0.3175 z m 11.1125,0 c -0.45689,-0.45689 -0.45689,-23.77895 0,-24.23584 0.1885,-0.1885 1.09616,-0.3175 2.23395,-0.3175 1.5706,0 1.97886,0.0891 2.26225,0.49368 0.26917,0.3843 0.34577,2.61184 0.34573,10.05382 l -6e-5,9.56014 4.64344,3.5e-4 c 3.25837,2.4e-4 4.73814,0.0951 4.96094,0.31785 0.41818,0.41818 0.41818,3.70931 0,4.1275 -0.23073,0.23072 -2.20486,0.3175 -7.22313,0.3175 -5.01826,0 -6.9924,-0.0868 -7.22312,-0.3175 z m 19.15768,-0.10102 c -0.0883,-0.23018 -0.1606,-5.70287 -0.1606,-12.16152 0,-11.33918 0.0176,-11.75243 0.51177,-12.0169 0.31416,-0.16814 3.10095,-0.2739 7.21717,-0.2739 8.04856,0 7.88148,-0.0529 7.88148,2.49615 0,1.06528 -0.12722,1.77797 -0.35043,1.96322 -0.21917,0.1819 -2.17657,0.31792 -5.22552,0.36313 l -4.87509,0.0723 -0.0757,2.57969 -0.0757,2.57969 h 4.05175 c 4.98084,0 5.22783,0.10778 5.22783,2.28135 0,2.5364 0.10941,2.48115 -4.91336,2.48115 h -4.36557 l 0.0754,2.71198 0.0754,2.71198 4.87509,0.0723 c 3.04895,0.0452 5.00635,0.18124 5.22552,0.36313 0.4482,0.37197 0.47422,3.43599 0.0329,3.87729 -0.23166,0.23165 -2.29853,0.3175 -7.64461,0.3175 -6.43729,0 -7.34661,-0.0508 -7.48771,-0.41852 z M 118.52992,190.9182 c -2.50788,-0.7221 -5.25166,-2.92056 -5.65609,-4.53197 -0.21691,-0.8642 -0.10677,-0.96653 2.1062,-1.95696 l 1.81478,-0.81221 0.96334,1.03189 c 1.25262,1.34176 2.41928,1.90853 4.27496,2.0768 2.6854,0.2435 4.49359,-0.85239 4.49359,-2.72345 0,-1.61758 -0.98436,-2.379 -4.45495,-3.44599 -1.69712,-0.52175 -3.56193,-1.12504 -4.14401,-1.34063 -2.9959,-1.10962 -4.37306,-2.93898 -4.57441,-6.07646 -0.15349,-2.39163 0.31894,-3.82156 1.7383,-5.26148 3.70051,-3.75411 11.74531,-3.13375 14.70271,1.13377 0.98074,1.41522 0.7847,1.94708 -1.03533,2.80883 -1.80423,0.85426 -1.98741,0.8537 -2.78151,-0.008 -1.40561,-1.52599 -4.597,-2.18417 -6.30584,-1.30049 -1.42303,0.73588 -1.68416,2.86704 -0.45692,3.729 0.3108,0.21829 2.24912,0.93016 4.30739,1.58194 4.55697,1.44302 5.99817,2.34109 7.05416,4.39572 0.62711,1.22016 0.7423,1.76567 0.7423,3.51524 0,3.43122 -1.29703,5.41515 -4.46557,6.83053 -1.58657,0.70872 -6.38309,0.9129 -8.3231,0.35431 z m 24.26865,0.005 c -2.90826,-0.92217 -4.94476,-2.75826 -6.00155,-5.41093 -0.57468,-1.44252 -0.59555,-1.79827 -0.60414,-10.30069 -0.008,-7.54658 0.0479,-8.84252 0.38798,-9.05792 0.57991,-0.36729 4.06519,-0.32179 4.445,0.058 0.23255,0.23255 0.3179,2.40941 0.31898,8.13594 8.7e-4,4.63921 0.11433,8.22483 0.27901,8.81785 0.33832,1.21826 1.55642,2.65696 2.62395,3.09915 1.26106,0.52235 4.20876,0.24866 5.24141,-0.48665 1.74314,-1.24123 1.76743,-1.38179 1.85621,-10.74547 0.0521,-5.49861 0.17914,-8.57571 0.36312,-8.79739 0.37207,-0.44832 4.21894,-0.46764 4.66315,-0.0234 0.23356,0.23355 0.3175,2.52933 0.3175,8.68323 0,6.8176 -0.0769,8.63166 -0.41561,9.80281 -0.89439,3.0925 -3.25191,5.4016 -6.3207,6.19088 -1.88306,0.48431 -5.67817,0.50266 -7.15431,0.0346 z M 36.885864,190.44706 c -0.456888,-0.45689 -0.456888,-23.77894 0,-24.23583 0.198838,-0.19884 1.187685,-0.3175 2.645833,-0.3175 1.869816,0 2.419516,0.0916 2.791354,0.46527 0.254662,0.25589 1.87652,2.88104 3.60413,5.83365 2.765009,4.7256 3.180378,5.31141 3.469081,4.89254 0.180385,-0.26171 1.608957,-2.67849 3.174605,-5.37063 1.565648,-2.69213 3.083611,-5.10315 3.373251,-5.35781 0.415183,-0.36504 1.013101,-0.46302 2.82564,-0.46302 1.43535,0 2.418296,0.11927 2.616521,0.3175 0.504235,0.50423 0.452009,23.84774 -0.05429,24.26793 -0.233322,0.19364 -1.144836,0.27961 -2.447396,0.23084 l -2.075602,-0.0777 -0.132292,-7.9375 -0.132291,-7.9375 -0.564485,0.92604 c -0.310466,0.50932 -1.485489,2.53339 -2.611163,4.49792 -2.716525,4.74089 -3.143634,5.29166 -4.103552,5.29166 -0.425958,0 -0.987447,-0.23342 -1.256713,-0.52244 -0.267704,-0.28735 -1.730858,-2.69837 -3.251452,-5.35782 l -2.764718,-4.83536 -0.07028,7.65078 c -0.04689,5.10519 -0.167713,7.76819 -0.363126,8.00365 -0.381325,0.45947 -4.219902,0.48851 -4.673056,0.0354 z m 31.230192,0.097 c -0.521604,-0.3311 -0.64667,-23.76357 -0.129592,-24.28065 0.500022,-0.50001 14.334552,-0.5487 14.831062,-0.0522 0.41818,0.41818 0.41818,3.70932 0,4.1275 -0.22381,0.22381 -1.74625,0.3175 -5.15937,0.3175 h -4.84188 v 2.64583 2.64583 h 4.18042 c 2.89866,0 4.27776,0.0974 4.49792,0.3175 0.41818,0.41819 0.41818,3.70932 0,4.1275 -0.22016,0.22016 -1.59926,0.3175 -4.49792,0.3175 h -4.18042 v 2.64584 2.64583 h 4.84188 c 3.41312,0 4.93556,0.0937 5.15937,0.3175 0.18281,0.1828 0.3175,1.05833 0.3175,2.06375 0,1.00542 -0.13469,1.88095 -0.3175,2.06375 -0.36759,0.3676 -14.13211,0.45842 -14.70147,0.097 z m 18.7244,-0.17486 c -0.18046,-0.21745 -0.26808,-0.66393 -0.19471,-0.99219 0.33568,-1.5018 8.76231,-22.85924 9.1349,-23.15256 0.25776,-0.20292 1.250109,-0.33073 2.567919,-0.33073 1.30988,0 2.317525,0.12903 2.582805,0.33073 0.60268,0.45824 9.23656,22.88263 9.13754,23.73254 -0.0765,0.6568 -0.13928,0.67739 -2.29438,0.75265 -2.52415,0.0882 -2.98998,-0.14791 -3.47914,-1.76302 -0.15994,-0.52811 -0.47193,-1.46621 -0.6933,-2.08467 l -0.40249,-1.12448 h -4.820835 -4.820829 l -0.61022,1.91823 c -0.89506,2.81365 -1.25028,3.10885 -3.741,3.10885 -1.48542,0 -2.12713,-0.10722 -2.36626,-0.39535 z m 14.815404,-9.19635 c 0,-0.36935 -2.912685,-7.92211 -3.165305,-8.20781 -0.0996,-0.1126 -0.89896,1.70068 -1.77643,4.02951 -0.877479,2.32883 -1.543119,4.28654 -1.479199,4.35046 0.0639,0.0639 1.534779,0.11916 3.268579,0.12275 2.186075,0.005 3.152355,-0.0859 3.152355,-0.29491 z m 61.1484,9.23055 c -0.21574,-0.25996 -0.28043,-3.68885 -0.23084,-12.23698 l 0.0689,-11.87583 5.42081,-0.0718 c 3.18882,-0.0422 5.99297,0.047 6.81039,0.21665 2.18855,0.45434 3.74654,1.66198 4.78887,3.71198 0.77497,1.52418 0.88678,2.0003 0.90089,3.83646 0.0108,1.40884 -0.13088,2.44339 -0.43213,3.15465 -0.53131,1.25443 -2.31217,3.14877 -3.37336,3.58834 -0.41471,0.17177 -0.75401,0.40209 -0.75401,0.51182 0,0.10973 0.97067,1.79192 2.15704,3.73821 2.90854,4.77155 2.88831,4.72999 2.58143,5.3034 -0.21918,0.40953 -0.59461,0.48365 -2.43268,0.48022 -1.19542,-0.002 -2.34286,-0.11124 -2.54985,-0.24225 -0.207,-0.13101 -1.41369,-2.06395 -2.68153,-4.29543 l -2.30518,-4.05723 -1.61795,-0.0788 -1.61795,-0.0788 v 4.06075 c 0,2.80558 -0.0981,4.15889 -0.3175,4.37825 -0.45633,0.45633 -4.02972,0.42101 -4.41535,-0.0437 z m 10.06949,-13.14066 c 1.39076,-0.38629 2.06314,-1.03046 2.33903,-2.2409 0.3034,-1.33114 -0.0519,-2.74808 -0.88546,-3.53116 -0.77648,-0.72947 -3.41558,-1.19512 -5.38137,-0.94951 l -1.40884,0.17602 v 3.23271 c 0,1.77799 0.0794,3.31208 0.17639,3.4091 0.27516,0.27515 4.07844,0.20421 5.16025,-0.0963 z m 13.0708,13.08604 c -0.36534,-0.36534 -0.41577,-1.82345 -0.41577,-12.01965 0,-10.19619 0.0504,-11.6543 0.41577,-12.01964 0.35734,-0.35733 1.41455,-0.41577 7.52173,-0.41577 8.20359,0 7.9375,-0.0766 7.9375,2.28525 0,2.56438 0.19576,2.47725 -5.56556,2.47725 h -5.01778 v 2.64583 2.64583 h 4.21444 c 4.98853,0 5.04598,0.0269 5.04598,2.35915 0,2.34339 -0.12759,2.40335 -5.11406,2.40335 h -4.14636 v 2.64584 2.64583 h 4.8759 c 5.70285,0 5.70744,0.002 5.70744,2.28525 0,2.63562 0.49835,2.47725 -7.79562,2.47725 -6.23616,0 -7.30587,-0.058 -7.66361,-0.41577 z m 20.80381,0.0983 c -0.23749,-0.23749 -0.3175,-3.30228 -0.3175,-12.16152 v -11.84403 l 0.58623,-0.31374 c 0.68882,-0.36864 9.22031,-0.15379 11.56524,0.29125 3.06923,0.5825 5.90102,2.38726 7.39234,4.71128 2.41805,3.76821 2.74384,9.01944 0.81425,13.12447 -1.39091,2.95904 -4.59384,5.37472 -8.11584,6.12104 -2.3135,0.49024 -11.45113,0.54484 -11.92472,0.0713 z m 11.55293,-4.86513 c 3.3239,-1.38882 4.95354,-4.78275 4.26281,-8.87785 -0.63221,-3.74821 -2.92929,-5.68996 -7.06668,-5.97354 -1.16716,-0.08 -2.55352,-0.0645 -3.08079,0.0344 l -0.95869,0.17985 v 7.51266 7.51267 l 0.99219,0.11882 c 1.61281,0.19314 4.84598,-0.087 5.85116,-0.50701 z M 63.328794,152.88712 c -1.306978,-0.64693 -2.555689,-2.20546 -2.954909,-3.68805 -0.179227,-0.6656 -0.245676,-13.52737 -0.197655,-38.25766 l 0.07234,-37.254972 0.870978,-2.513542 c 3.078565,-8.88438 10.467408,-14.680388 20.560268,-16.128034 8.70285,-1.248273 19.047254,1.956214 27.974164,8.665832 6.02177,4.526063 10.03996,9.089782 16.00492,18.177826 3.76395,5.734656 5.03251,7.011458 6.96623,7.011458 2.04135,0 3.34464,-1.219475 7.21058,-6.746874 4.52378,-6.46796 6.34473,-8.733153 9.5712,-11.90625 4.40372,-4.330866 8.79486,-6.985579 13.58012,-8.210012 1.45342,-0.371896 1.88306,-0.64214 3.34484,-2.103919 5.39552,-5.395524 14.05899,-5.491165 19.74424,-0.217969 1.61168,1.494871 1.8205,1.603377 3.95058,2.052842 4.61312,0.973404 7.38817,2.472907 10.20304,5.513224 1.27174,1.373592 2.10264,2.615474 3.04065,4.544626 2.42772,4.99292 2.21679,1.249245 2.31118,41.019124 0.0609,25.67724 0.002,35.47567 -0.21676,36.24792 -0.45777,1.61339 -1.46689,2.89716 -2.88334,3.66809 l -1.28159,0.69753 -68.35898,-2.1e-4 -68.358987,-2e-4 z M 161.78748,57.489821 c -0.87688,-0.164508 -5.53612,-5.240995 -5.73837,-6.25225 -0.31267,-1.563324 1.63294,-3.030685 3.12005,-2.353115 0.33912,0.154513 1.70579,1.479733 3.03706,2.944934 2.66557,2.933754 2.93805,3.663427 1.82516,4.887579 -0.64744,0.712174 -1.32444,0.945349 -2.2439,0.772852 z m 26.92894,-0.540982 c -0.34937,-0.282902 -0.63132,-0.884506 -0.71823,-1.532534 -0.13997,-1.043548 -0.0872,-1.128579 2.41869,-3.8999 2.43639,-2.694429 2.61314,-2.833091 3.61136,-2.833091 1.31358,0 2.34845,0.921383 2.34845,2.090904 0,0.817856 -1.09972,2.30772 -3.87615,5.251283 -1.10752,1.174196 -1.45704,1.389062 -2.25958,1.389062 -0.52217,0 -1.20821,-0.209576 -1.52454,-0.465724 z m -13.91529,-5.475374 c -0.63994,-0.639936 -0.64944,-0.716987 -0.64944,-5.270027 0,-2.541327 0.074,-4.81333 0.16436,-5.048895 0.19435,-0.506461 1.44927,-1.202479 2.16807,-1.202479 0.27865,0 0.82034,0.246767 1.20377,0.548371 l 0.69714,0.54837 v 4.961759 c 0,4.84437 -0.0145,4.975369 -0.61237,5.537046 -0.83967,0.788831 -2.14103,0.75636 -2.97153,-0.07415 z"
       id="path5"
       inkscape:label="yellow sun and road" /><path
       style="display:none;fill:#a4bba4;fill-opacity:1;stroke:none"
       d="m 95.094196,224.31373 c -0.23736,-0.23736 -0.3175,-3.26585 -0.3175,-11.99754 0,-13.63986 -0.2526,-12.55822 2.931249,-12.5519 1.07995,0.002 2.23071,0.15098 2.557265,0.33073 0.32987,0.18159 2.04999,2.77703 3.87069,5.84037 l 3.27697,5.51353 1.31909,-2.20624 c 0.72551,-1.21344 2.16958,-3.65868 3.20906,-5.43389 1.03948,-1.7752 2.15361,-3.41231 2.47586,-3.63802 0.73358,-0.51382 4.38098,-0.57134 5.05108,-0.0796 0.41494,0.30447 0.44522,1.28665 0.3813,12.36927 l -0.0694,12.03854 -1.84655,0.0796 c -1.0156,0.0438 -2.11518,0.0122 -2.44352,-0.0702 l -0.59697,-0.14984 -0.07,-7.99187 -0.07,-7.99188 -2.2173,3.96105 c -3.84208,6.86361 -4.41138,7.55191 -5.74404,6.94474 -0.31529,-0.14365 -1.87761,-2.48827 -3.63442,-5.45428 l -3.08142,-5.20233 -0.004,7.68615 c -0.003,5.62117 -0.0889,7.77145 -0.321105,8.00365 -0.19124,0.19124 -1.11712,0.3175 -2.32833,0.3175 -1.211199,0 -2.137089,-0.12626 -2.328329,-0.3175 z m 31.220834,0 c -0.45689,-0.45689 -0.45689,-23.77895 0,-24.23584 0.1877,-0.18769 1.09038,-0.3175 2.20795,-0.3175 2.98448,0 2.76622,-0.99432 2.76622,12.60177 0,8.69594 -0.0802,11.71425 -0.3175,11.95157 -0.19125,0.19124 -1.11713,0.3175 -2.32834,0.3175 -1.2112,0 -2.13709,-0.12626 -2.32833,-0.3175 z m 11.1125,0 c -0.45689,-0.45689 -0.45689,-23.77895 0,-24.23584 0.1885,-0.1885 1.09616,-0.3175 2.23395,-0.3175 1.5706,0 1.97886,0.0891 2.26225,0.49368 0.26917,0.3843 0.34577,2.61184 0.34573,10.05382 l -6e-5,9.56014 4.64344,3.5e-4 c 3.25837,2.4e-4 4.73814,0.0951 4.96094,0.31785 0.41818,0.41818 0.41818,3.70931 0,4.1275 -0.23073,0.23072 -2.20486,0.3175 -7.22313,0.3175 -5.01826,0 -6.9924,-0.0868 -7.22312,-0.3175 z m 19.15768,-0.10102 c -0.0883,-0.23018 -0.1606,-5.70287 -0.1606,-12.16152 0,-11.33918 0.0176,-11.75243 0.51177,-12.0169 0.31416,-0.16814 3.10095,-0.2739 7.21717,-0.2739 8.04856,0 7.88148,-0.0529 7.88148,2.49615 0,1.06528 -0.12722,1.77797 -0.35043,1.96322 -0.21917,0.1819 -2.17657,0.31792 -5.22552,0.36313 l -4.87509,0.0723 -0.0757,2.57969 -0.0757,2.57969 h 4.05175 c 4.98084,0 5.22783,0.10778 5.22783,2.28135 0,2.5364 0.10941,2.48115 -4.91336,2.48115 h -4.36557 l 0.0754,2.71198 0.0754,2.71198 4.87509,0.0723 c 3.04895,0.0452 5.00635,0.18124 5.22552,0.36313 0.4482,0.37197 0.47422,3.43599 0.0329,3.87729 -0.23166,0.23165 -2.29853,0.3175 -7.64461,0.3175 -6.43729,0 -7.34661,-0.0508 -7.48771,-0.41852 z M 118.52992,190.9182 c -2.50788,-0.7221 -5.25166,-2.92056 -5.65609,-4.53197 -0.21691,-0.8642 -0.10677,-0.96653 2.1062,-1.95696 l 1.81478,-0.81221 0.96334,1.03189 c 1.25262,1.34176 2.41928,1.90853 4.27496,2.0768 2.6854,0.2435 4.49359,-0.85239 4.49359,-2.72345 0,-1.61758 -0.98436,-2.379 -4.45495,-3.44599 -1.69712,-0.52175 -3.56193,-1.12504 -4.14401,-1.34063 -2.9959,-1.10962 -4.37306,-2.93898 -4.57441,-6.07646 -0.15349,-2.39163 0.31894,-3.82156 1.7383,-5.26148 3.70051,-3.75411 11.74531,-3.13375 14.70271,1.13377 0.98074,1.41522 0.7847,1.94708 -1.03533,2.80883 -1.80423,0.85426 -1.98741,0.8537 -2.78151,-0.008 -1.40561,-1.52599 -4.597,-2.18417 -6.30584,-1.30049 -1.42303,0.73588 -1.68416,2.86704 -0.45692,3.729 0.3108,0.21829 2.24912,0.93016 4.30739,1.58194 4.55697,1.44302 5.99817,2.34109 7.05416,4.39572 0.62711,1.22016 0.7423,1.76567 0.7423,3.51524 0,3.43122 -1.29703,5.41515 -4.46557,6.83053 -1.58657,0.70872 -6.38309,0.9129 -8.3231,0.35431 z m 24.26865,0.005 c -2.90826,-0.92217 -4.94476,-2.75826 -6.00155,-5.41093 -0.57468,-1.44252 -0.59555,-1.79827 -0.60414,-10.30069 -0.008,-7.54658 0.0479,-8.84252 0.38798,-9.05792 0.57991,-0.36729 4.06519,-0.32179 4.445,0.058 0.23255,0.23255 0.3179,2.40941 0.31898,8.13594 8.7e-4,4.63921 0.11433,8.22483 0.27901,8.81785 0.33832,1.21826 1.55642,2.65696 2.62395,3.09915 1.26106,0.52235 4.20876,0.24866 5.24141,-0.48665 1.74314,-1.24123 1.76743,-1.38179 1.85621,-10.74547 0.0521,-5.49861 0.17914,-8.57571 0.36312,-8.79739 0.37207,-0.44832 4.21894,-0.46764 4.66315,-0.0234 0.23356,0.23355 0.3175,2.52933 0.3175,8.68323 0,6.8176 -0.0769,8.63166 -0.41561,9.80281 -0.89439,3.0925 -3.25191,5.4016 -6.3207,6.19088 -1.88306,0.48431 -5.67817,0.50266 -7.15431,0.0346 z M 36.885864,190.44706 c -0.456888,-0.45689 -0.456888,-23.77894 0,-24.23583 0.198838,-0.19884 1.187685,-0.3175 2.645833,-0.3175 1.869816,0 2.419516,0.0916 2.791354,0.46527 0.254662,0.25589 1.87652,2.88104 3.60413,5.83365 2.765009,4.7256 3.180378,5.31141 3.469081,4.89254 0.180385,-0.26171 1.608957,-2.67849 3.174605,-5.37063 1.565648,-2.69213 3.083611,-5.10315 3.373251,-5.35781 0.415183,-0.36504 1.013101,-0.46302 2.82564,-0.46302 1.43535,0 2.418296,0.11927 2.616521,0.3175 0.504235,0.50423 0.452009,23.84774 -0.05429,24.26793 -0.233322,0.19364 -1.144836,0.27961 -2.447396,0.23084 l -2.075602,-0.0777 -0.132292,-7.9375 -0.132291,-7.9375 -0.564485,0.92604 c -0.310466,0.50932 -1.485489,2.53339 -2.611163,4.49792 -2.716525,4.74089 -3.143634,5.29166 -4.103552,5.29166 -0.425958,0 -0.987447,-0.23342 -1.256713,-0.52244 -0.267704,-0.28735 -1.730858,-2.69837 -3.251452,-5.35782 l -2.764718,-4.83536 -0.07028,7.65078 c -0.04689,5.10519 -0.167713,7.76819 -0.363126,8.00365 -0.381325,0.45947 -4.219902,0.48851 -4.673056,0.0354 z m 31.230192,0.097 c -0.521604,-0.3311 -0.64667,-23.76357 -0.129592,-24.28065 0.500022,-0.50001 14.334552,-0.5487 14.831062,-0.0522 0.41818,0.41818 0.41818,3.70932 0,4.1275 -0.22381,0.22381 -1.74625,0.3175 -5.15937,0.3175 h -4.84188 v 2.64583 2.64583 h 4.18042 c 2.89866,0 4.27776,0.0974 4.49792,0.3175 0.41818,0.41819 0.41818,3.70932 0,4.1275 -0.22016,0.22016 -1.59926,0.3175 -4.49792,0.3175 h -4.18042 v 2.64584 2.64583 h 4.84188 c 3.41312,0 4.93556,0.0937 5.15937,0.3175 0.18281,0.1828 0.3175,1.05833 0.3175,2.06375 0,1.00542 -0.13469,1.88095 -0.3175,2.06375 -0.36759,0.3676 -14.13211,0.45842 -14.70147,0.097 z m 18.7244,-0.17486 c -0.18046,-0.21745 -0.26808,-0.66393 -0.19471,-0.99219 0.33568,-1.5018 8.76231,-22.85924 9.1349,-23.15256 0.25776,-0.20292 1.250109,-0.33073 2.567919,-0.33073 1.30988,0 2.317525,0.12903 2.582805,0.33073 0.60268,0.45824 9.23656,22.88263 9.13754,23.73254 -0.0765,0.6568 -0.13928,0.67739 -2.29438,0.75265 -2.52415,0.0882 -2.98998,-0.14791 -3.47914,-1.76302 -0.15994,-0.52811 -0.47193,-1.46621 -0.6933,-2.08467 l -0.40249,-1.12448 h -4.820835 -4.820829 l -0.61022,1.91823 c -0.89506,2.81365 -1.25028,3.10885 -3.741,3.10885 -1.48542,0 -2.12713,-0.10722 -2.36626,-0.39535 z m 14.815404,-9.19635 c 0,-0.36935 -2.912685,-7.92211 -3.165305,-8.20781 -0.0996,-0.1126 -0.89896,1.70068 -1.77643,4.02951 -0.877479,2.32883 -1.543119,4.28654 -1.479199,4.35046 0.0639,0.0639 1.534779,0.11916 3.268579,0.12275 2.186075,0.005 3.152355,-0.0859 3.152355,-0.29491 z m 61.1484,9.23055 c -0.21574,-0.25996 -0.28043,-3.68885 -0.23084,-12.23698 l 0.0689,-11.87583 5.42081,-0.0718 c 3.18882,-0.0422 5.99297,0.047 6.81039,0.21665 2.18855,0.45434 3.74654,1.66198 4.78887,3.71198 0.77497,1.52418 0.88678,2.0003 0.90089,3.83646 0.0108,1.40884 -0.13088,2.44339 -0.43213,3.15465 -0.53131,1.25443 -2.31217,3.14877 -3.37336,3.58834 -0.41471,0.17177 -0.75401,0.40209 -0.75401,0.51182 0,0.10973 0.97067,1.79192 2.15704,3.73821 2.90854,4.77155 2.88831,4.72999 2.58143,5.3034 -0.21918,0.40953 -0.59461,0.48365 -2.43268,0.48022 -1.19542,-0.002 -2.34286,-0.11124 -2.54985,-0.24225 -0.207,-0.13101 -1.41369,-2.06395 -2.68153,-4.29543 l -2.30518,-4.05723 -1.61795,-0.0788 -1.61795,-0.0788 v 4.06075 c 0,2.80558 -0.0981,4.15889 -0.3175,4.37825 -0.45633,0.45633 -4.02972,0.42101 -4.41535,-0.0437 z m 10.06949,-13.14066 c 1.39076,-0.38629 2.06314,-1.03046 2.33903,-2.2409 0.3034,-1.33114 -0.0519,-2.74808 -0.88546,-3.53116 -0.77648,-0.72947 -3.41558,-1.19512 -5.38137,-0.94951 l -1.40884,0.17602 v 3.23271 c 0,1.77799 0.0794,3.31208 0.17639,3.4091 0.27516,0.27515 4.07844,0.20421 5.16025,-0.0963 z m 13.0708,13.08604 c -0.36534,-0.36534 -0.41577,-1.82345 -0.41577,-12.01965 0,-10.19619 0.0504,-11.6543 0.41577,-12.01964 0.35734,-0.35733 1.41455,-0.41577 7.52173,-0.41577 8.20359,0 7.9375,-0.0766 7.9375,2.28525 0,2.56438 0.19576,2.47725 -5.56556,2.47725 h -5.01778 v 2.64583 2.64583 h 4.21444 c 4.98853,0 5.04598,0.0269 5.04598,2.35915 0,2.34339 -0.12759,2.40335 -5.11406,2.40335 h -4.14636 v 2.64584 2.64583 h 4.8759 c 5.70285,0 5.70744,0.002 5.70744,2.28525 0,2.63562 0.49835,2.47725 -7.79562,2.47725 -6.23616,0 -7.30587,-0.058 -7.66361,-0.41577 z m 20.80381,0.0983 c -0.23749,-0.23749 -0.3175,-3.30228 -0.3175,-12.16152 v -11.84403 l 0.58623,-0.31374 c 0.68882,-0.36864 9.22031,-0.15379 11.56524,0.29125 3.06923,0.5825 5.90102,2.38726 7.39234,4.71128 2.41805,3.76821 2.74384,9.01944 0.81425,13.12447 -1.39091,2.95904 -4.59384,5.37472 -8.11584,6.12104 -2.3135,0.49024 -11.45113,0.54484 -11.92472,0.0713 z m 11.55293,-4.86513 c 3.3239,-1.38882 4.95354,-4.78275 4.26281,-8.87785 -0.63221,-3.74821 -2.92929,-5.68996 -7.06668,-5.97354 -1.16716,-0.08 -2.55352,-0.0645 -3.08079,0.0344 l -0.95869,0.17985 v 7.51266 7.51267 l 0.99219,0.11882 c 1.61281,0.19314 4.84598,-0.087 5.85116,-0.50701 z M 63.328794,152.88712 c -1.306978,-0.64693 -2.555689,-2.20546 -2.954909,-3.68805 -0.179227,-0.6656 -0.245676,-13.52737 -0.197655,-38.25766 l 0.07234,-37.254972 0.870978,-2.513542 c 3.078565,-8.88438 10.467408,-14.680388 20.560268,-16.128034 8.70285,-1.248273 19.047254,1.956214 27.974164,8.665832 6.02177,4.526063 10.03996,9.089782 16.00492,18.177826 3.76395,5.734656 5.03251,7.011458 6.96623,7.011458 2.04135,0 3.34464,-1.219475 7.21058,-6.746874 7.37538,-10.545079 11.92637,-15.133084 18.04411,-18.190871 1.64676,-0.823088 4.70369,-1.919059 6.01946,-2.158098 l 0.99237,-0.180286 -0.65006,0.957922 c -1.77527,2.616008 -2.49552,7.290486 -1.63866,10.635126 1.37687,5.374451 5.55109,9.388093 10.95458,10.533168 2.27393,0.481877 3.48618,0.477484 5.59793,-0.02029 5.08456,-1.198507 9.1924,-4.959933 10.66733,-9.767769 1.12381,-3.663312 0.56639,-8.280917 -1.36675,-11.321924 -0.57205,-0.899879 -0.69078,-1.256771 -0.41812,-1.256771 0.68294,0 4.81617,1.029589 5.99655,1.493745 3.80878,1.49771 7.22022,4.803015 9.23593,8.948588 2.42772,4.99292 2.21679,1.249245 2.31118,41.019126 0.0609,25.67724 0.002,35.47567 -0.21676,36.24792 -0.45777,1.61339 -1.46689,2.89716 -2.88334,3.66809 l -1.28159,0.69753 h -25.16575 c -13.84117,0 -25.16576,-0.10109 -25.16576,-0.22465 0,-0.59306 2.24519,-7.7973 3.40678,-10.9315 4.68668,-12.64551 10.99956,-22.62148 19.98691,-31.58445 4.36692,-4.35507 6.48956,-6.18415 10.55427,-9.09461 1.28163,-0.9177 2.28205,-1.71673 2.22314,-1.77564 -0.23468,-0.23468 -6.593,2.13765 -9.58047,3.57454 -5.47244,2.63207 -10.06233,5.77507 -15.78257,10.80736 -10.83879,9.53525 -19.60457,21.90986 -25.72688,36.31854 l -1.18044,2.77812 -10.4712,0.0692 c -5.75916,0.038 -10.4712,-0.008 -10.4712,-0.10308 0,-0.44941 6.83726,-10.36952 9.00343,-13.06297 13.09375,-16.28105 28.98511,-29.13191 46.95594,-37.97187 2.47385,-1.2169 4.73604,-2.40724 5.02708,-2.64518 0.29104,-0.23794 0.40636,-0.37331 0.25627,-0.30083 -0.1501,0.0725 -1.8765,0.49071 -3.83646,0.92939 -16.809,3.76225 -32.84458,12.51161 -53.17293,29.01232 -7.70555,6.25467 -14.72605,13.63627 -20.306865,21.35136 l -2.050429,2.83458 -15.61042,0.009 c -15.466481,0.009 -15.621045,0.004 -16.763523,-0.56129 z m 65.643516,-4.65433 c 0.98827,-1.70329 4.87828,-7.37808 6.97074,-10.169 1.78459,-2.38028 1.95828,-2.71298 1.60227,-3.069 -0.35602,-0.35602 -0.58053,-0.25697 -2.07095,0.91362 -2.07695,1.63127 -3.52716,3.3953 -6.81476,8.28949 -3.65444,5.44028 -3.51171,5.02708 -1.73642,5.02708 1.42391,0 1.49279,-0.0334 2.04912,-0.99219 z m 18.24624,-23.68021 c 1.97008,-2.2369 3.55569,-4.18859 4.45542,-5.48408 l 0.63897,-0.92002 -1.29304,0.92002 c -0.71117,0.50601 -2.58758,2.15685 -4.16981,3.66854 -2.74653,2.62407 -2.85659,2.77082 -2.43095,3.24114 0.2452,0.27095 0.59526,0.49263 0.7779,0.49263 0.18265,0 1.09233,-0.8632 2.02151,-1.91823 z m -54.293944,-1.25677 c 0,-0.14552 -0.0525,-0.26458 -0.11667,-0.26458 -0.0642,0 -0.19026,0.11906 -0.2802,0.26458 -0.0899,0.14552 -0.0374,0.26459 0.11668,0.26459 0.15411,0 0.28019,-0.11907 0.28019,-0.26459 z m 5.220009,-5.98068 c -0.0879,-0.0879 -0.31612,-0.0973 -0.50711,-0.0209 -0.21107,0.0845 -0.14838,0.14716 0.15985,0.15985 0.27891,0.0115 0.43518,-0.051 0.34726,-0.13896 z m 8.538335,-17.11846 c 0,-0.0442 -0.44649,-0.4907 -0.99219,-0.99219 l -0.99219,-0.91179 0.9118,0.99218 c 0.84868,0.92351 1.07258,1.11384 1.07258,0.9118 z M 81.581276,87.114041 c 0.32911,-0.419644 0.31975,-0.429002 -0.0999,-0.09989 -0.25467,0.19972 -0.46302,0.408079 -0.46302,0.463021 0,0.217761 0.21727,0.0776 0.56291,-0.363126 z m 17.428749,-0.41352 c 0,-0.04553 -0.38695,-0.432487 -0.85989,-0.859895 l -0.8599,-0.777106 0.77711,0.859896 c 0.72437,0.801544 0.94268,0.981512 0.94268,0.777105 z"
       id="path4"
       inkscape:label="Green" /><rect
       style="display:inline;opacity:1;fill:#a4bba4;fill-opacity:1;stroke:none;stroke-width:0.264583"
       id="rect5"
       width="50.504295"
       height="57.092773"
       x="64.361534"
       y="75.354416"
       ry="16.427298"
       inkscape:label="tree" /><path
       style="fill:#7f9ab2;fill-opacity:1;stroke:none;opacity:1"
       d="m 95.050586,224.11945 c -0.17651,-0.32982 -0.27389,-4.52202 -0.27389,-11.79135 0,-7.26932 0.0974,-11.46153 0.27389,-11.79135 0.24064,-0.44963 0.56992,-0.51128 2.711979,-0.50772 1.34095,0.002 2.571485,0.0915 2.734525,0.19844 0.16304,0.10691 1.74526,2.63516 3.51605,5.61834 1.77078,2.98318 3.30426,5.44903 3.40773,5.47967 0.10347,0.0306 1.49781,-2.21926 3.09854,-4.99978 1.60072,-2.78052 3.13059,-5.3397 3.39969,-5.68707 0.46654,-0.60224 0.61406,-0.6281 3.175,-0.55647 l 2.68572,0.0751 v 12.17083 12.17083 l -2.14208,0.0762 c -1.56746,0.0558 -2.22289,-0.0212 -2.44333,-0.28679 -0.20646,-0.24878 -0.32334,-2.80615 -0.37146,-8.12809 l -0.0702,-7.7651 -2.87,5.00919 c -1.5785,2.75505 -3.05547,5.21755 -3.28215,5.47221 -0.61166,0.68714 -1.78211,0.58649 -2.4062,-0.20691 -0.28984,-0.36847 -1.75262,-2.74972 -3.25064,-5.29167 -1.49802,-2.54195 -2.78757,-4.62181 -2.86567,-4.6219 -0.07811,-9e-5 -0.108615,3.33471 -0.0678,7.41067 0.0489,4.87893 -0.0221,7.59082 -0.207755,7.93766 -0.24514,0.45806 -0.55584,0.52684 -2.38,0.52684 -1.803489,0 -2.136499,-0.0719 -2.371939,-0.51178 z m 31.264444,0.19428 c -0.39689,-0.39689 -0.45304,-23.39995 -0.0586,-24.02417 0.18062,-0.28587 0.76952,-0.40523 2.10553,-0.42674 3.18696,-0.0513 2.92728,-1.13655 2.92728,12.23309 0,7.42938 -0.0971,11.69326 -0.2739,12.02354 -0.23468,0.43852 -0.56795,0.51178 -2.32833,0.51178 -1.24512,0 -2.17952,-0.12508 -2.37194,-0.3175 z m 11.1125,0 c -0.37504,-0.37504 -0.45886,-23.39156 -0.0873,-23.97757 0.26841,-0.42335 3.65094,-0.63735 4.33388,-0.2742 0.42818,0.22769 0.46302,0.98213 0.46302,10.02649 v 9.78028 h 4.70959 c 3.31023,0 4.80392,0.0943 5.02708,0.3175 0.38911,0.3891 0.42059,3.22882 0.0436,3.93322 -0.26012,0.48604 -0.62342,0.51178 -7.22313,0.51178 -5.05218,0 -7.0359,-0.0867 -7.26673,-0.3175 z m 19.31458,0 c -0.23726,-0.23727 -0.3175,-3.24075 -0.3175,-11.88461 0,-6.36191 0.0723,-11.75545 0.1606,-11.98563 0.1411,-0.36769 1.05042,-0.41851 7.48771,-0.41851 5.34608,0 7.41295,0.0858 7.64461,0.3175 0.41443,0.41443 0.41443,3.44848 0,3.86291 -0.22443,0.22443 -1.77565,0.3175 -5.29167,0.3175 h -4.97417 v 2.77173 2.77173 l 4.43178,0.0725 4.43177,0.0725 0.0788,1.80976 c 0.0482,1.10645 -0.0415,1.95473 -0.23083,2.18281 -0.24264,0.29236 -1.21835,0.37306 -4.51055,0.37306 h -4.20094 v 2.77812 2.77813 h 4.97417 c 3.51602,0 5.06724,0.0931 5.29167,0.3175 0.41443,0.41443 0.41443,3.44848 0,3.86292 -0.23133,0.23132 -2.26366,0.3175 -7.48771,0.3175 -5.22405,0 -7.25639,-0.0862 -7.48771,-0.3175 z m -37.09458,-33.18662 c -2.65905,-0.51012 -4.75472,-1.74256 -6.08445,-3.57821 -1.18783,-1.63974 -1.07871,-1.97072 0.94974,-2.88082 0.95945,-0.43048 1.90882,-0.78269 2.1097,-0.78269 0.20089,0 0.8744,0.50842 1.49669,1.12982 2.90509,2.9009 8.40749,2.19221 8.40749,-1.08285 0,-1.29817 -1.27994,-2.47008 -3.43959,-3.14929 -0.94588,-0.29749 -2.76591,-0.86772 -4.04451,-1.2672 -3.87895,-1.2119 -5.74507,-3.42268 -5.74507,-6.80613 0,-2.71307 1.48069,-5.14644 3.82095,-6.27934 2.60449,-1.26081 6.94667,-1.24876 9.49627,0.0263 1.30596,0.65313 2.97376,2.1808 3.52225,3.2263 0.3155,0.60137 0.32736,0.82413 0.061,1.14512 -0.37296,0.44939 -2.69498,1.68014 -3.16986,1.68014 -0.17046,0 -0.81858,-0.46885 -1.44025,-1.04189 -1.27343,-1.17381 -2.30669,-1.46486 -4.54221,-1.27947 -1.2035,0.0998 -1.60559,0.26035 -2.1044,0.84025 -0.33914,0.39428 -0.61663,1.05136 -0.61663,1.46018 0,1.43222 0.78014,1.97887 4.55324,3.19051 5.52152,1.77312 7.14888,2.84373 8.00322,5.26519 0.47488,1.34597 0.53029,3.93869 0.11659,5.45586 -0.39179,1.43679 -2.63015,3.60396 -4.35653,4.21796 -1.28723,0.45781 -5.61933,0.77385 -6.9936,0.51021 z m 23.3848,-0.18913 c -2.71385,-0.69426 -4.86621,-2.451 -6.01413,-4.90869 -0.54175,-1.15989 -0.57261,-1.65029 -0.64839,-10.30318 -0.0583,-6.65818 0.003,-9.18511 0.23043,-9.45885 0.39524,-0.47624 3.96028,-0.52137 4.42562,-0.056 0.23291,0.2329 0.3175,2.44303 0.3175,8.29489 0,8.24312 0.0872,9.0485 1.13401,10.47713 1.48565,2.0275 5.93596,2.20694 7.65392,0.30861 1.17725,-1.30084 1.26624,-2.03928 1.26624,-10.50719 0,-9.41927 -0.15723,-8.89094 2.64583,-8.89094 2.8704,0 2.70343,-0.61828 2.60103,9.63139 l -0.0875,8.75715 -0.76187,1.64949 c -0.97444,2.10972 -2.72827,3.77117 -4.80776,4.55453 -1.95835,0.73773 -5.95068,0.96442 -7.95494,0.45169 z M 37.152724,190.53969 c -0.268487,-0.17034 -0.362022,-2.74995 -0.436634,-12.04198 -0.08146,-10.1456 -0.03964,-11.88052 0.294435,-12.2146 0.400469,-0.40046 3.559012,-0.55085 4.766797,-0.22695 0.41002,0.10996 1.474271,1.68042 3.650438,5.38676 1.689428,2.87735 3.225407,5.44177 3.413284,5.69871 0.302322,0.41345 0.719176,-0.17903 3.625604,-5.1531 2.257266,-3.86309 3.475515,-5.69444 3.896543,-5.85753 0.839374,-0.32514 4.200485,-0.29965 4.828816,0.0366 0.494274,0.26453 0.511772,0.67887 0.511772,12.11792 0,8.85924 -0.08001,11.92403 -0.3175,12.16152 -0.421402,0.4214 -3.97068,0.4214 -4.392083,0 -0.231886,-0.23189 -0.321695,-2.42573 -0.333059,-8.13594 -0.01037,-5.21232 -0.102118,-7.68614 -0.275238,-7.42156 -0.142824,0.21828 -1.454975,2.48047 -2.915891,5.02708 -2.776835,4.84048 -3.335895,5.55625 -4.339728,5.55625 -0.86076,0 -1.485883,-0.85946 -4.492125,-6.1761 l -2.645833,-4.67925 -0.07021,7.72057 c -0.0469,5.15738 -0.167458,7.83775 -0.363126,8.07351 -0.327918,0.39512 -3.825108,0.49676 -4.40626,0.12807 z m 30.953972,-0.0926 c -0.456888,-0.45689 -0.456888,-23.77894 0,-24.23583 0.41243,-0.41243 13.75253,-0.45251 14.51656,-0.0436 0.42855,0.22935 0.51177,0.56496 0.51177,2.06375 0,1.03933 -0.13313,1.92299 -0.3175,2.10736 -0.22381,0.22381 -1.74625,0.3175 -5.15937,0.3175 h -4.84188 v 2.64583 2.64583 h 3.98615 c 2.24177,0 4.2101,0.11986 4.49791,0.2739 0.43039,0.23033 0.51178,0.56545 0.51178,2.10735 0,1.54191 -0.0814,1.87702 -0.51178,2.10736 -0.28781,0.15404 -2.25614,0.27389 -4.49791,0.27389 h -3.98615 v 2.64584 2.64583 h 4.6476 c 2.69774,0 4.86232,0.11491 5.15938,0.27389 0.42855,0.22935 0.51177,0.56496 0.51177,2.06375 0,1.03934 -0.13313,1.92299 -0.3175,2.10736 -0.23103,0.23103 -2.23426,0.3175 -7.35541,0.3175 -5.12116,0 -7.12439,-0.0865 -7.35542,-0.3175 z m 18.78542,0 c -0.17463,-0.17462 -0.3175,-0.4535 -0.3175,-0.61973 0,-0.59006 8.78137,-23.01529 9.19071,-23.47058 0.32833,-0.36518 0.848719,-0.46302 2.462649,-0.46302 1.55898,0 2.179845,0.11027 2.606875,0.46302 0.3083,0.25466 1.13691,1.9513 1.84136,3.77031 0.70446,1.81901 2.66807,6.88617 4.36358,11.26034 1.69551,4.37418 3.08274,8.20121 3.08274,8.50451 0,0.72006 -0.46129,0.87265 -2.63816,0.87265 -2.26818,0 -2.67574,-0.32782 -3.4538,-2.77812 -0.32346,-1.01865 -0.66359,-1.93635 -0.75584,-2.03933 -0.0923,-0.10299 -2.30994,-0.20496 -4.928195,-0.22661 l -4.760469,-0.0394 -0.73246,2.07868 c -0.95364,2.70639 -1.32516,3.00473 -3.74185,3.00473 -1.12667,0 -2.03158,-0.12944 -2.21964,-0.3175 z m 14.946494,-9.27364 c -0.0761,-0.18191 -0.84556,-2.14906 -1.70982,-4.37145 -0.864265,-2.2224 -1.622085,-4.09143 -1.684065,-4.1534 -0.0925,-0.0925 -0.84747,1.83616 -3.336969,8.52485 -0.0946,0.2541 0.68688,0.33072 3.373099,0.33072 2.694415,0 3.464455,-0.0758 3.357755,-0.33072 z m 60.96565,9.22999 c -0.21574,-0.25996 -0.28043,-3.68885 -0.23084,-12.23698 l 0.0689,-11.87583 h 5.95312 c 5.06497,0 6.15816,0.0715 7.32742,0.47938 2.81826,0.98306 4.58026,3.7814 4.57736,7.26961 -8.1e-4,0.97681 -0.1194,2.20051 -0.26353,2.71935 -0.33539,1.20733 -1.84359,2.9706 -3.18639,3.7253 -0.57559,0.3235 -1.0447,0.71508 -1.04247,0.87019 0.002,0.1551 1.07368,2.00841 2.38102,4.11846 1.30734,2.11006 2.37708,4.09161 2.3772,4.40347 3e-4,0.74321 -0.44918,0.8882 -2.75342,0.8882 -1.65112,0 -1.99145,-0.0825 -2.45689,-0.59531 -0.4628,-0.50994 -4.4333,-7.30744 -4.65577,-7.97069 -0.0714,-0.21296 -0.71145,-0.25937 -2.63525,-0.19108 l -0.72761,0.0258 v 4.04813 c 0,2.79576 -0.0982,4.14634 -0.3175,4.36562 -0.45633,0.45633 -4.02972,0.42101 -4.41535,-0.0437 z m 10.81827,-13.33145 c 2.33298,-1.16545 2.37276,-5.0761 0.0624,-6.13761 -0.85975,-0.39503 -4.47683,-0.68744 -5.45784,-0.44122 l -0.69001,0.17318 v 3.43454 3.43454 l 2.57969,-4.1e-4 c 1.92585,-3e-4 2.8144,-0.11766 3.50573,-0.46302 z m 12.48833,13.3751 c -0.45689,-0.45689 -0.45689,-23.77894 0,-24.23583 0.23106,-0.23106 2.23691,-0.3175 7.36733,-0.3175 8.1853,0 7.92559,-0.0803 7.92559,2.44933 0,2.31551 0.006,2.31317 -5.70744,2.31317 h -4.8759 v 2.64583 2.64583 h 4.19233 c 3.72544,0 4.24109,0.0539 4.63021,0.48386 0.57009,0.62995 0.58602,2.89106 0.026,3.69061 -0.39634,0.56585 -0.57104,0.58803 -4.63021,0.58803 h -4.21833 v 2.64584 2.64583 h 4.85379 c 5.70439,0 5.72955,0.0108 5.72955,2.44933 0,2.39335 0.27394,2.31317 -7.90349,2.31317 -5.14761,0 -7.15832,-0.0864 -7.38943,-0.3175 z m 20.65073,0.0252 c -0.25452,-0.26372 -0.3298,-3.02828 -0.32668,-11.99757 0.002,-6.4102 0.10578,-11.81543 0.23012,-12.01163 0.18201,-0.2872 1.38014,-0.33599 6.14751,-0.25032 5.28967,0.095 6.09082,0.16867 7.50894,0.68997 2.26899,0.83408 4.14432,2.22225 5.35404,3.96323 4.00958,5.77042 2.69804,14.14605 -2.7837,17.777 -2.37648,1.57412 -4.07041,1.91301 -10.24325,2.04931 -4.33043,0.0956 -5.62922,0.0471 -5.88698,-0.21999 z m 11.71117,-4.97275 c 2.89127,-1.27712 4.21602,-3.53145 4.22463,-7.18905 0.005,-2.00595 -0.0866,-2.44742 -0.79115,-3.8251 -1.48188,-2.89758 -3.69243,-3.92796 -8.09718,-3.77425 l -2.21883,0.0774 -0.0702,7.58659 c -0.0812,8.77988 -0.44583,7.90603 3.24854,7.78523 1.75294,-0.0573 2.73415,-0.23237 3.70416,-0.66085 z M 63.688154,152.96329 c -0.582083,-0.26586 -1.448302,-0.88425 -1.92493,-1.37418 -1.733105,-1.7815 -1.653875,0.11279 -1.620016,-38.73253 0.01688,-19.36077 0.121776,-36.227263 0.233111,-37.481104 0.479899,-5.404549 3.429602,-10.931694 7.747847,-14.51789 1.09637,-0.910508 3.15726,-2.214305 4.8244,-3.052093 11.68357,-5.871344 26.262329,-2.891049 39.320234,8.038126 4.37761,3.663968 7.9947,7.977632 12.87959,15.359963 4.67727,7.068555 5.28435,7.696396 7.44195,7.696396 2.10652,0 3.39716,-1.171072 7.02234,-6.37176 4.24953,-6.096388 6.67577,-9.169429 9.39735,-11.902519 3.19515,-3.20867 5.23931,-4.732861 8.60521,-6.416306 1.88095,-0.940755 6.24369,-2.561496 6.89508,-2.561496 0.0665,0 -0.22828,0.625078 -0.65506,1.389062 -1.58629,2.839673 -2.10919,6.74091 -1.34508,10.035355 1.19127,5.136083 5.4863,9.450513 10.61046,10.658384 4.68377,1.10406 9.19058,-0.196519 12.94107,-3.734546 3.38092,-3.189381 4.97049,-7.692485 4.28098,-12.127587 -0.30683,-1.973583 -1.5314,-5.106384 -2.3493,-6.01015 -0.58089,-0.641873 -0.307,-0.624747 3.062,0.191459 3.76198,0.911412 6.03297,2.148032 8.4963,4.626486 2.75906,2.775991 4.30523,5.543301 5.48684,9.820216 0.43461,1.573126 0.46629,4.096209 0.46629,37.141944 v 35.45417 l -0.57108,1.05833 c -0.3141,0.58208 -0.90941,1.37944 -1.32292,1.7719 -1.6952,1.60892 -0.36632,1.53539 -27.74867,1.53539 -23.71154,0 -25.02249,-0.0244 -24.89725,-0.46302 0.0727,-0.25466 0.38834,-1.39904 0.7014,-2.54307 1.51183,-5.52475 4.27826,-12.72603 6.8672,-17.87602 6.16384,-12.26126 15.36318,-23.14489 25.80465,-30.5292 1.45521,-1.02913 2.69544,-1.90792 2.75608,-1.95284 0.0606,-0.0449 0.0401,-0.15178 -0.0455,-0.23745 -0.23716,-0.23716 -6.09239,1.82564 -8.92826,3.14542 -7.06595,3.28842 -13.28367,7.88043 -20.65062,15.2512 -9.34956,9.35442 -15.95976,19.23718 -21.55633,32.22842 l -1.28229,2.97656 h -10.41787 c -8.2607,0 -10.37795,-0.0685 -10.22511,-0.33073 1.36314,-2.33886 4.94597,-7.66579 6.98476,-10.38489 3.72287,-4.96515 7.16614,-8.891 12.43057,-14.1728 11.12651,-11.1632 22.05769,-19.07386 35.99391,-26.048 3.02771,-1.51517 5.56936,-2.8591 5.6481,-2.98652 0.30604,-0.49518 -7.83181,1.49783 -12.73059,3.1178 -8.27249,2.73562 -19.54365,8.52381 -28.24765,14.50628 -7.02043,4.82532 -16.97984,12.60918 -21.99944,17.19384 -4.857,4.43615 -11.46689,11.98141 -15.048825,17.17839 l -1.316319,1.90982 -15.47812,0.003 c -14.430264,0.002 -15.549777,-0.0301 -16.536462,-0.48081 z m 64.955206,-3.95584 c 0,-0.36925 4.04166,-6.42027 6.74718,-10.10164 2.30778,-3.14015 2.52823,-3.53757 2.1642,-3.90159 -0.36402,-0.36403 -0.54152,-0.30533 -1.74254,0.57631 -2.10888,1.54805 -4.0723,3.90013 -7.32538,8.77541 -1.66015,2.48802 -3.01846,4.60138 -3.01846,4.69636 0,0.095 0.71438,0.17268 1.5875,0.17268 0.87313,0 1.5875,-0.0979 1.5875,-0.21753 z m 18.38006,-24.16084 c 1.88979,-2.0412 5.2266,-6.34275 5.05406,-6.51529 -0.20196,-0.20195 -2.67622,1.897 -5.50104,4.66662 -2.41942,2.37212 -2.54659,2.55009 -2.14181,2.99736 0.23668,0.26153 0.57765,0.47551 0.7577,0.47551 0.18005,0 1.00404,-0.73089 1.83109,-1.6242 z M 92.924606,120.0664 c 0,-2.00736 0.0633,-3.64975 0.14064,-3.64975 0.0773,0 0.88103,0.25026 1.78594,0.55614 2.359329,0.79749 5.794144,0.62952 7.913864,-0.38702 4.89063,-2.34536 7.34358,-7.74817 5.81003,-12.79705 -0.92682,-3.05133 -3.513,-5.92754 -6.19555,-6.890344 -0.93036,-0.333916 -1.21793,-0.557175 -1.09744,-0.852004 0.0898,-0.219735 0.22595,-1.13141 0.30256,-2.025943 0.28335,-3.308532 -1.621535,-7.210142 -4.482095,-9.180286 -4.837769,-3.3319 -10.785119,-2.856569 -14.836549,1.185785 -2.55822,2.552493 -3.77892,6.237933 -3.02167,9.122845 l 0.3554,1.354003 -1.20891,0.434989 c -2.72461,0.980355 -5.312,3.745795 -6.22732,6.655845 -0.68579,2.18029 -0.48173,5.56086 0.45933,7.60956 0.91523,1.99245 3.28243,4.35672 5.35282,5.34617 2.61339,1.24897 6.556,1.23325 9.59114,-0.0382 0.25504,-0.10684 0.33073,0.67391 0.33073,3.41128 0,1.9524 0.0864,3.63623 0.19201,3.74183 0.10561,0.10561 1.2367,0.1605 2.51354,0.12198 l 2.32153,-0.07 z"
       id="path3"
       inkscape:label="Blue" /></g></svg>
